<svg id="Layer_1" data-name="Layer 1" xmlns="http://www.w3.org/2000/svg" viewBox="0 0 252.05 77.56"><defs><style>.cls-1{fill:#caedbb;stroke:#000;stroke-miterlimit:10;}.cls-2{fill:#e7f2e2;}.cls-3{font-size:50.68px;fill:#5dcc29;font-family:HiraKakuStd-W8-83pv-RKSJ-H, Hiragino Kaku Gothic Std;}.cls-4{fill:#98dd73;}</style></defs><title>Shop</title><rect class="cls-1" x="1.2" y="2.94" width="249" height="60"/><path d="M.46,2.76q48.47-.15,96.94-.19t97.17.05l54.33.13a1.5,1.5,0,0,0,0-3q-48.6-.13-97.2-.18T54.61-.37Q27.54-.33.46-.24a1.5,1.5,0,0,0,0,3Z" transform="translate(1.7 0.44)"/><path d="M247.33,1.75V62a1.5,1.5,0,0,0,3,0V1.75a1.5,1.5,0,0,0-3,0Z" transform="translate(1.7 0.44)"/><path d="M248,61.35H1a1.5,1.5,0,0,0,0,3H248a1.5,1.5,0,0,0,0-3Z" transform="translate(1.7 0.44)"/><path d="M1.3,62V2.25a1.5,1.5,0,0,0-3,0V62a1.5,1.5,0,0,0,3,0Z" transform="translate(1.7 0.44)"/><path class="cls-2" d="M33.65,4.91Q20,4.7,6.28,5.1A1.51,1.51,0,0,0,4.84,6.2,90.58,90.58,0,0,0,3.73,33c.2,1.9,3.21,1.92,3,0A87.87,87.87,0,0,1,7.73,7L6.28,8.1Q20,7.7,33.65,7.91c1.93,0,1.93-3,0-3Z" transform="translate(1.7 0.44)"/><text class="cls-3" transform="translate(46.87 49.78)">Shop</text><path class="cls-4" d="M54.13,17.58c1-5.11,7.54-4.71,11.44-4a1.54,1.54,0,0,0,1.84-1,1.52,1.52,0,0,0-1-1.85c-3-.57-6.22-.91-9.21,0a8.15,8.15,0,0,0-5.91,6.06,1.53,1.53,0,0,0,1,1.85,1.51,1.51,0,0,0,1.84-1.05Z" transform="translate(1.7 0.44)"/><path class="cls-4" d="M93.8,10.05,91.41,10l-1.2,0a2.6,2.6,0,0,0-.83.07,1.69,1.69,0,0,0-1.14,1.14,6.06,6.06,0,0,0-.12,1.41q0,.6,0,1.2c0,.8.07,1.6.15,2.39a1.66,1.66,0,0,0,.44,1.06,1.52,1.52,0,0,0,1.06.44,1.46,1.46,0,0,0,1.06-.44,1.42,1.42,0,0,0,.44-1.06,24.85,24.85,0,0,1-.11-4.48l0,.39a.52.52,0,0,1,0-.11l-.15.36,0-.05-.23.3,0,0-.67.38a.27.27,0,0,1,.12,0l-.4.05c1.31,0,2.62.06,3.93.09a1.5,1.5,0,0,0,1.5-1.5,1.52,1.52,0,0,0-1.5-1.5Z" transform="translate(1.7 0.44)"/><path class="cls-4" d="M127.8,30.62c-.26-2.31,1.8-4.06,3.53-5.26a8.67,8.67,0,0,1,3.18-1.25c1.38-.3,2.77-.52,4.16-.74a1.5,1.5,0,0,0,1-1.84,1.52,1.52,0,0,0-1.84-1.05c-3,.47-6.09.79-8.56,2.66s-4.88,4.25-4.51,7.48a1.55,1.55,0,0,0,1.5,1.5,1.5,1.5,0,0,0,1.5-1.5Z" transform="translate(1.7 0.44)"/><path class="cls-4" d="M167,21h-3.08a4.28,4.28,0,0,0-1.95.22c-.8.42-.87,1.29-.9,2.09a18.47,18.47,0,0,0,.82,6.05,1.5,1.5,0,0,0,2.9-.79c-.16-.5-.3-1-.41-1.52,0-.26-.1-.51-.14-.77a3.07,3.07,0,0,1-.07-.42l0,.16,0-.24c0-.52-.09-1-.1-1.57v-.72c0-.12,0-.24,0-.36a1.93,1.93,0,0,1,0-.24c0-.31,0-.17-.13.43l-.54.53-.53.15H163a2.25,2.25,0,0,0,.26,0H167a1.5,1.5,0,0,0,0-3Z" transform="translate(1.7 0.44)"/></svg>